<svg height='100px' width='100px'  fill="#000000" xmlns:dc="http://purl.org/dc/elements/1.1/" xmlns:cc="http://creativecommons.org/ns#" xmlns:rdf="http://www.w3.org/1999/02/22-rdf-syntax-ns#" xmlns:svg="http://www.w3.org/2000/svg" xmlns="http://www.w3.org/2000/svg" xmlns:sodipodi="http://sodipodi.sourceforge.net/DTD/sodipodi-0.dtd" xmlns:inkscape="http://www.inkscape.org/namespaces/inkscape" version="1.1" x="0px" y="0px" viewBox="0 0 100 100"><g transform="translate(0,-952.36218)"><g transform="translate(5.0000001e-8,-2.27e-5)"><path transform="matrix(0.57142857,0,0,0.57243914,45.714286,947.9134)" d="M 25,37.5 C 25,47.164983 17.164983,55 7.5,55 -2.1649831,55 -10,47.164983 -10,37.5 -10,27.835017 -2.1649831,20 7.5,20 17.164983,20 25,27.835017 25,37.5 z" style="" fill="#000000" fill-opacity="1" stroke="none"></path><path transform="matrix(0.51428571,0,0,0.51519522,11.142857,984.12018)" d="M 25,37.5 C 25,47.164983 17.164983,55 7.5,55 -2.1649831,55 -10,47.164983 -10,37.5 -10,27.835017 -2.1649831,20 7.5,20 17.164983,20 25,27.835017 25,37.5 z" style="" fill="#000000" fill-opacity="1" stroke="none"></path><path style="" d="M 25,37.5 C 25,47.164983 17.164983,55 7.5,55 -2.1649831,55 -10,47.164983 -10,37.5 -10,27.835017 -2.1649831,20 7.5,20 17.164983,20 25,27.835017 25,37.5 z" transform="matrix(0.51428571,0,0,0.51519522,18.142857,1005.1573)" fill="#000000" fill-opacity="1" stroke="none"></path><path transform="matrix(0.45714286,0,0,0.45795132,34.107143,1020.1749)" d="M 25,37.5 C 25,47.164983 17.164983,55 7.5,55 -2.1649831,55 -10,47.164983 -10,37.5 -10,27.835017 -2.1649831,20 7.5,20 17.164983,20 25,27.835017 25,37.5 z" style="" fill="#000000" fill-opacity="1" stroke="none"></path><path style="" d="M 25,37.5 C 25,47.164983 17.164983,55 7.5,55 -2.1649831,55 -10,47.164983 -10,37.5 -10,27.835017 -2.1649831,20 7.5,20 17.164983,20 25,27.835017 25,37.5 z" transform="matrix(0.45714286,0,0,0.45795132,58.561276,1020.1293)" fill="#000000" fill-opacity="1" stroke="none"></path><path transform="matrix(0.4,0,0,0.4007074,78,1008.4489)" d="M 25,37.5 C 25,47.164983 17.164983,55 7.5,55 -2.1649831,55 -10,47.164983 -10,37.5 -10,27.835017 -2.1649831,20 7.5,20 17.164983,20 25,27.835017 25,37.5 z" style="" fill="#000000" fill-opacity="1" stroke="none"></path><path style="" d="M 25,37.5 C 25,47.164983 17.164983,55 7.5,55 -2.1649831,55 -10,47.164983 -10,37.5 -10,27.835017 -2.1649831,20 7.5,20 17.164983,20 25,27.835017 25,37.5 z" transform="matrix(0.4,0,0,0.4007074,84,989.41525)" fill="#000000" fill-opacity="1" stroke="none"></path><path transform="matrix(0.28571429,0,0,0.28621958,71.857143,961.65193)" d="M 25,37.5 C 25,47.164983 17.164983,55 7.5,55 -2.1649831,55 -10,47.164983 -10,37.5 -10,27.835017 -2.1649831,20 7.5,20 17.164983,20 25,27.835017 25,37.5 z" style="" fill="#000000" fill-opacity="1" stroke="none"></path><path style="" d="M 25,37.5 C 25,47.164983 17.164983,55 7.5,55 -2.1649831,55 -10,47.164983 -10,37.5 -10,27.835017 -2.1649831,20 7.5,20 17.164983,20 25,27.835017 25,37.5 z" transform="matrix(0.57142857,0,0,0.57243914,20.714286,958.93285)" fill="#000000" fill-opacity="1" stroke="none"></path><path style="" d="M 25,37.5 C 25,47.164983 17.164983,55 7.5,55 -2.1649831,55 -10,47.164983 -10,37.5 -10,27.835017 -2.1649831,20 7.5,20 17.164983,20 25,27.835017 25,37.5 z" transform="matrix(0.34285714,0,0,0.34346348,81.428571,973.53005)" fill="#000000" fill-opacity="1" stroke="none" ></path></g></g></svg>